<svg xmlns="http://www.w3.org/2000/svg" version="1.1" xmlns:xlink="http://www.w3.org/1999/xlink" viewBox="0 0 11.241784213165895 11.241784213165895"><g transform="matrix(0.8571428571428572,0,0,0.8571428571428572,3.7218835202744,3.5940239594420835)"><rect width="13.11541491536021" height="13.11541491536021" x="-4.342197440320134" y="-4.1930279526824314" fill="#ffffff"></rect><g><path d=" M -1.0550816212093326 1.5733400213780904 Q -1.099786003642081 1.63278763017194 -1.1509411184387222 1.6586363096380647 L -1.1810887569702064 1.6260154590824007 Q -1.1333700652605962 1.601258107416215 -1.092525366607975 1.5479832485053127 Q -1.0516806679553536 1.4947083895944104 -1.0325790116920566 1.4284050961015615 Q -1.0048954518901765 1.3323133664017808 -1.0272916936771344 1.2727868315301782 Q -1.0496879354640922 1.2132602966585755 -1.1083038905809586 1.1963733251794288 Q -1.1534670035398555 1.1833620520725452 -1.1878472490023018 1.2015554223469596 Q -1.222227494464748 1.219748792621374 -1.247714677840467 1.2540329505310042 Q -1.2732018612161862 1.2883171084406346 -1.3074013586334297 1.3492301150681847 Q -1.3469751283238356 1.4179608705746587 -1.3771444949776703 1.4576604841207184 Q -1.407313861631505 1.497360097666778 -1.4523454172045338 1.5182085748935017 Q -1.4973769727775625 1.5390570521202256 -1.5579147624884244 1.521616409445041 Q -1.6069215446353127 1.5074977939460823 -1.640285968611212 1.4697875140113426 Q -1.6736503925871111 1.4320772340766026 -1.682308949322013 1.3718254341427543 Q -1.6909675060569147 1.311573634208906 -1.6679901514213542 1.2318174985580879 Q -1.651933686736264 1.176084295332215 -1.6200952991982482 1.1269791318666575 Q -1.5882569116602328 1.0778739684010996 -1.5490400505285256 1.0465045915667348 L -1.5149023177139727 1.0761122797284641 Q -1.5543960144436986 1.108442573859827 -1.5827899715986151 1.152816363387934 Q -1.611183928753532 1.1971901529160414 -1.624748873056453 1.244275100468934 Q -1.6516019260642767 1.3374840782777213 -1.6279679313823021 1.3963265314503448 Q -1.6043339367003275 1.4551689846229685 -1.5447570642864634 1.472332791700134 Q -1.4995939513275665 1.4853440648070177 -1.4652137058651202 1.4671506945326032 Q -1.430833460402674 1.4489573242581888 -1.405346277026955 1.4146731663485586 Q -1.3798590936512358 1.3803890084389283 -1.3444218433389759 1.3187919201123992 Q -1.30484807364857 1.2500611646059252 -1.2748171247937445 1.2108420097083643 Q -1.2447861759389192 1.1716228548108036 -1.2007155376628882 1.150497541986061 Q -1.1566448993868572 1.1293722291613184 -1.097068026972993 1.146536036238484 Q -1.0480612448261049 1.160654651737443 -1.015315697297714 1.1987069725216724 Q -0.9825701497693231 1.2367592933059017 -0.9743268464314495 1.2984524691852468 Q -0.9660835430935759 1.3601456450645917 -0.9890608977291363 1.4399017807154098 Q -1.010377238776584 1.513892412584241 -1.0550816212093326 1.5733400213780904 M -0.8784288418746871 0.910562913429277 Q -0.9812389315668991 0.9381552213697033 -1.1111251231087331 0.8672075135366941 L -1.4648017122395376 0.6740188226130274 L -1.440353515621406 0.6292607430952333 L -1.088432145295221 0.8214906812103457 Q -0.975220532397271 0.8833302373620903 -0.8907703227971028 0.8622313724995523 Q -0.8063201131969344 0.8411325076370143 -0.7526299559179005 0.7428402545783291 Q -0.6994191750431437 0.6454256109219536 -0.7273029689386155 0.5629665663119483 Q -0.7551867628340874 0.480507521701943 -0.8683983757320373 0.4186679655501986 L -1.2203197460582225 0.226438027435086 L -1.1958715494400909 0.18167994791729192 L -0.8421949603092863 0.37486863884095867 Q -0.7123087687674523 0.44581634667396774 -0.6802066987061108 0.5476714255742205 Q -0.6481046286447694 0.6495265044744734 -0.7118616904136222 0.766248554981662 Q -0.775618752182475 0.8829706054888506 -0.8784288418746871 0.910562913429277 M -0.5863362854926552 -0.4680952646130142 Q -0.48969492588362573 -0.48194075532003744 -0.4072594486457389 -0.4076077741302462 Q -0.3255666333649501 -0.3339444594376605 -0.3293752483367196 -0.2363906565799716 Q -0.333183863308489 -0.13883685372228283 -0.421579840939592 -0.0408054753853363 L -0.555513140380657 0.10772691603427964 L -0.3854435522051968 0.2610805438942992 L -0.4195965435626684 0.2989563037063012 L -0.9394599135313242 -0.16981024433742664 L -0.7713736227327875 -0.35621839556904455 Q -0.6829776451016845 -0.4542497739059912 -0.5863362854926552 -0.4680952646130142 M -0.37761975584179885 -0.23141898728361388 Q -0.37449986840449057 -0.3080497011154615 -0.4420821065004158 -0.36898935236114605 Q -0.5096643445963411 -0.4299290036068306 -0.5859364348078102 -0.4192604397497076 Q -0.6622085250192793 -0.4085918758925845 -0.7372111727062758 -0.32541373669759954 L -0.8711444721473409 -0.1768813452779836 L -0.5896755904071688 0.07692225716283468 L -0.45574229096610364 -0.07161013425678125 Q -0.38073964327910714 -0.15478827345176616 -0.37761975584179885 -0.23141898728361388 M 0.49326606740555 -0.5081678256438258 L 0.22193660203184293 -0.6031695162604581 Q 0.1945793470124154 -0.5777612381251336 0.16924430065785392 -0.5598968762218295 L 0.005792388692941269 -0.44464292845857745 L 0.13775815888186493 -0.2574904892587524 L 0.09607792133081222 -0.22810073257912314 L -0.3073108958405702 -0.8001824244563174 L -0.10217874632460483 -0.9448261288991988 Q 0.0056995155722375235 -1.0208937344229452 0.10301084123509607 -1.0130352423451296 Q 0.20032216689795457 -1.005176750267314 0.2642881079065595 -0.9144609391267874 Q 0.3121184962283091 -0.8466283956613486 0.309944205178884 -0.7759617666315697 Q 0.30776991412945875 -0.7052951376017909 0.25646061289609223 -0.6409728583593413 L 0.5406671218753747 -0.5415914704951689 L 0.49326606740555 -0.5081678256438258 M 0.14331216241112218 -0.5966735564139349 Q 0.2348452331114733 -0.6612157671613561 0.25453819506971764 -0.7356700299628314 Q 0.27423115702796197 -0.8101242927643066 0.22179061079568224 -0.8844949127083419 Q 0.16935006456340257 -0.9588655326523772 0.09260639846234836 -0.9653199662735337 Q 0.015862732361294263 -0.9717743998946902 -0.07567033833905684 -0.907232189147269 L -0.2391222503039695 -0.7919782413840168 L -0.02013974955379047 -0.4814196086506828 L 0.14331216241112218 -0.5966735564139349 M 1.0536648298055622 -0.9825411128238158 L 0.678349203599295 -0.8277051327500698 L 0.671205354688384 -0.6116519785894835 L 0.6203621048328551 -0.5906766610918085 L 0.6510676358348155 -1.3605735180576541 L 0.6982131947917604 -1.3800233579191346 L 1.2628358984618102 -0.8557284003806103 L 1.2119926486062815 -0.8347530828829353 L 1.0536648298055622 -0.9825411128238158 M 1.0197019134481973 -1.0150452712116689 L 0.6955348908576885 -1.3183400807036953 L 0.6804387735031232 -0.8750826980908196 L 1.0197019134481973 -1.0150452712116689 M 1.8129069772925146 -0.9982573490515204 Q 1.7270945344738884 -1.0393362324041626 1.6744954158423042 -1.1171217241052538 Q 1.6218962972107203 -1.1949072158063452 1.6154802632618532 -1.294701176086349 Q 1.6090642293129862 -1.394495136366353 1.6512693729474057 -1.478375860318868 Q 1.6934745165818252 -1.562256584271383 1.7733200478280053 -1.6139860839791442 Q 1.8531655790741854 -1.6657155836869055 1.9559533581625894 -1.6723240986542385 Q 2.058741137250993 -1.6789326136215714 2.1445214998998754 -1.6383527000703293 Q 2.230301862548757 -1.5977727865190872 2.2829009811803416 -1.519987294817996 Q 2.3355000998119255 -1.4422018031169046 2.341980294100281 -1.3414099032341007 Q 2.348460488388637 -1.2406180033512968 2.3062553447542173 -1.156737279398782 Q 2.264050201119798 -1.072856555446267 2.1841725897038735 -1.0216260255399057 Q 2.1042949782879488 -0.9703954956335442 2.001507199199545 -0.9637869806662113 Q 1.898719420111141 -0.9571784656988782 1.8129069772925146 -0.9982573490515204 M 2.1545976465092367 -1.060809220088513 Q 2.222884944728493 -1.1052821883042103 2.259277164509343 -1.1782675042206483 Q 2.2956693842901936 -1.2512528201370865 2.290087434754679 -1.33807356558069 Q 2.2845054852191646 -1.4248943110242933 2.239066657570412 -1.4926184791026604 Q 2.193627829921659 -1.5603426471810278 2.1202077045433096 -1.5957048471893338 Q 2.04678757916496 -1.6310670471976396 1.9589688941185568 -1.6254209373226367 Q 1.8711502090721535 -1.6197748274476338 1.8023639410514976 -1.5752697790621923 Q 1.7335776730308416 -1.530764730676751 1.6971854532499913 -1.4577794147603127 Q 1.6607932334691409 -1.3847940988438745 1.6663751830046551 -1.297973353400271 Q 1.6719571325401694 -1.211152607956668 1.7173959601889222 -1.1434284398783006 Q 1.762834787837675 -1.0757042717999334 1.8367538830174246 -1.0403741519613718 Q 1.910672978197174 -1.00504403212281 1.9984916632435774 -1.010690141997813 Q 2.086310348289981 -1.016336251872816 2.1545976465092367 -1.060809220088513 M 3.052941775861859 -0.8784800745144159 L 2.9301642844730287 -1.1384236984182647 Q 2.8928645412812335 -1.140075714709392 2.862357552101991 -1.145582402572126 L 2.6655382670746204 -1.1811094210413773 L 2.624859830927327 -0.9557513396850376 L 2.574670913245348 -0.9648107293946967 L 2.6990154778877278 -1.653678226990495 L 2.946023680597078 -1.6090918188115846 Q 3.0759244087151427 -1.5856439866218786 3.138629447328766 -1.5108153281248557 Q 3.2013344859423887 -1.4359866696278332 3.1816169906919542 -1.3267519664376424 Q 3.1668732780272153 -1.2450719631512834 3.1150127972413353 -1.197020006555767 Q 3.0631523164554553 -1.1489680499602506 2.98132309174568 -1.1403670044774574 L 3.1100193685197968 -0.868177239158333 L 3.052941775861859 -0.8784800745144159 M 2.8703511312575727 -1.1898667417032844 Q 2.9805699308729006 -1.1699716113605036 3.0474245570271146 -1.2082039139563487 Q 3.1142791831813286 -1.246436216552194 3.130443976584838 -1.3359889912396476 Q 3.1466087699883474 -1.4255417659271015 3.0973400179764123 -1.4847350094198049 Q 3.048071265964478 -1.5439282529125085 2.9378524663491503 -1.563823383255289 L 2.741033181321779 -1.5993504017245406 L 2.6735318462302016 -1.2253937601725358 L 2.8703511312575727 -1.1898667417032844 M 3.5392086107888874 -1.4527556566085114 L 3.5872876288931335 -1.4357436603079132 L 3.3537896404535488 -0.7758355686810051 L 3.3057106223493027 -0.7928475649816035 L 3.5392086107888874 -1.4527556566085114 M 4.219650908292834 -0.7394058907647496 L 4.262426644700038 -0.7155053389966106 L 4.134631857694886 -0.48678609534993367 Q 4.073013323969795 -0.470812482684984 4.004614886717979 -0.48268277255125824 Q 3.936216449466163 -0.4945530624175325 3.8724893319615545 -0.5301600068884336 Q 3.781700013872797 -0.5808877086004021 3.731243919818368 -0.6617730136487886 Q 3.680787825763938 -0.7426583186971752 3.6788306260471444 -0.8365381321251353 Q 3.676873426330351 -0.9304179455530953 3.7261378289544744 -1.0185883410046768 Q 3.775402231578598 -1.1067587364562583 3.8563775820390345 -1.1543007454357856 Q 3.937352932499471 -1.201842754415313 4.032683531914488 -1.2012710769069808 Q 4.128014131329506 -1.2006993993986488 4.219676423630655 -1.149483931324065 Q 4.286895437984831 -1.1119259214027037 4.331251998800038 -1.0590771228104296 Q 4.375608559615246 -1.0062283242181551 4.392840354342365 -0.9427612835554423 L 4.348321123216911 -0.9286886839378005 Q 4.3313719778267314 -0.9885612692381075 4.293306327322367 -1.0321675331422715 Q 4.255240676818003 -1.0757737970464354 4.197624378800137 -1.1079663769790309 Q 4.119056699684867 -1.1518653496143882 4.036255414781851 -1.1523094424083058 Q 3.9534541298788355 -1.1527535352022233 3.883274658606404 -1.111207274095813 Q 3.8130951873339733 -1.0696610129894026 3.770659513786461 -0.9937122565113077 Q 3.728711606601564 -0.9186364742456046 3.7305525078514643 -0.83684948822345 Q 3.732393409101365 -0.7550625022012953 3.7754930147076706 -0.6845878684911376 Q 3.8185926203139764 -0.6141132347809799 3.897160299429247 -0.5702142621456225 Q 4.001917204916275 -0.5116822986318126 4.1020992149026 -0.5290191055783026 L 4.219650908292834 -0.7394058907647496 M 4.732978498398226 -0.7955960567677673 L 4.77266764854462 -0.7635683912166075 L 4.333072239018897 -0.2188153499915846 L 4.293383088872503 -0.25084301554274446 L 4.732978498398226 -0.7955960567677673 M 5.450160221509995 -0.07306433849825317 L 4.922165311913604 0.3865239288022728 L 4.894590015875573 0.35484423422648936 L 5.040014732350222 -0.404131820625222 L 4.581413439443643 -0.004946582741336553 L 4.547929151397462 -0.04341478329764499 L 5.075924060993852 -0.503003050598171 L 5.104155911699456 -0.470569077580107 L 4.958074640557235 0.2876526988293238 L 5.4166759334638135 -0.11153253905456162 L 5.450160221509995 -0.07306433849825317 M 5.561004634945256 1.19787366514234 L 5.405612456100476 0.822787980592967 L 5.189548949269412 0.8159644173110152 L 5.168498284647582 0.7651523171873316 L 5.938439813644085 0.7947165172699716 L 5.957959520838873 0.8418331919301145 L 5.4345021375961595 1.4072324914775147 L 5.413451472974329 1.356420391353831 L 5.561004634945256 1.19787366514234 M 5.593458410899867 1.1638626018498188 L 5.89627234107353 0.8392463303956909 L 5.452993066968748 0.8248073155699668 L 5.593458410899867 1.1638626018498188 M 6.1403114952686435 1.405032414490526 L 6.152111796182165 1.4546484693352064 L 5.4711071218434135 1.6166133838345216 L 5.459306820929892 1.5669973289898411 L 6.1403114952686435 1.405032414490526" fill="#525252" fill-rule="nonzero"></path></g><g><path d=" M -0.9334448848845833 3.6789965701289327 Q -0.9696089028513843 3.7715393375637616 -1.075661143247585 3.8075521451042245 Q -1.181713383643786 3.8435649526446873 -1.2662784786280177 3.792018908079581 Q -1.350843573612249 3.7404728635144746 -1.393930325491017 3.6135889330404485 L -1.4543803952910792 3.4355726723753968 L -1.6636441910728685 3.506633658682917 L -1.6874383674835314 3.4365634284211413 L -1.0246118650072753 3.2114833812932497 L -0.9403676187965502 3.459569872220077 Q -0.8972808669177824 3.5864538026941033 -0.9334448848845833 3.6789965701289327 M -1.2388161884585807 3.7267209554420773 Q -1.1780476049518613 3.7641699775733275 -1.0994553196582482 3.7374819148424487 Q -1.0189692443575598 3.7101507662626334 -0.9935703825423661 3.6434413380047577 Q -0.9681715207271723 3.5767319097468815 -1.0016119848718876 3.478254829378981 L -1.0614189688230131 3.302132358721004 L -1.3928322200611412 3.41467238228495 L -1.3330252361100157 3.5907948529429263 Q -1.2995847719653004 3.6892719333108275 -1.2388161884585807 3.7267209554420773 M -1.1169014127894754 4.660871678601677 L -1.0077876469673344 4.407259403449012 Q -1.0243794316469543 4.38574864611355 -1.0394470895276549 4.360970315136865 L -1.137127078547369 4.200338376391457 L -1.3268094742999252 4.3156838953402685 L -1.365257980616196 4.252456430089416 L -0.767160336351379 3.8887543433138845 L -0.6310318410153941 4.112613747310144 Q -0.5614088701183637 4.227106724926552 -0.5766044281726606 4.325295802809067 Q -0.5917999862269576 4.423484880691581 -0.6874956093093283 4.481677214575666 Q -0.7575584762089211 4.524282316169371 -0.827395838354845 4.518179624263411 Q -0.8972332005007689 4.51207693235745 -0.9586010601983923 4.459275551730304 L -1.0748158856054495 4.730080120295177 L -1.1169014127894754 4.660871678601677 M -0.8647415597439068 4.4384814618383555 Q -0.7968614077312842 4.461574425328199 -0.7259441156255988 4.4184497493248145 Q -0.6533179731077281 4.374285924502071 -0.6430182187628783 4.3036519025265685 Q -0.6327184644180285 4.233017880551066 -0.6867542030246789 4.144157659117436 L -0.7833950432250346 3.9852345707842134 L -1.0832982905635355 4.167605188581659 L -0.98665745036318 4.326528276914882 Q -0.9326217117565294 4.415388498348512 -0.8647415597439068 4.4384814618383555 M -0.35338682984596537 4.500030281892925 L -0.3055238563351429 4.556467288960117 L -0.8393874367004752 5.009225146494924 L -0.8872504102112977 4.9527881394277316 L -0.35338682984596537 4.500030281892925 M 0.288646363395631 5.117549068807331 L -0.40583166315548497 5.439729562688738 L -0.4607360497417188 5.391620225408025 L -0.23256925173121906 4.660839880649331 L -0.17240006095178473 4.713562442052852 L -0.37152473850743845 5.347468872678348 L 0.2322377470399113 5.06812166749153 L 0.288646363395631 5.117549068807331 M 0.5070700325463394 5.825083663776234 L 0.16738053094677605 5.633482404638826 L 0.0023462909645743796 5.755091202155688 L -0.06472061063328814 5.717262235608046 L 0.5578986763104197 5.264774419721575 L 0.6214815830200815 5.300638245149859 L 0.5563014781884777 6.067548640133615 L 0.4883635778685651 6.029228388306134 L 0.5070700325463394 5.825083663776234 M 0.5130301838413556 5.759559037897558 L 0.5514256637565833 5.3495275913936595 L 0.22037461323250096 5.594487183871483 L 0.5130301838413556 5.759559037897558 M 1.1070212937576744 5.583708076928123 L 0.8735692489498901 5.506144278832206 L 0.8937484484545188 5.445408787500099 L 1.430877949922836 5.623868583119161 L 1.4106987504182071 5.684604074451268 L 1.1772467056104226 5.607040276355351 L 0.9767159105331731 6.210599221468159 L 0.906490498680425 6.187267022040932 L 1.1070212937576744 5.583708076928123 M 1.9725128758028188 6.343067729862543 L 1.964220941508311 6.406528298924408 L 1.4733931026704594 6.342395369615323 L 1.5640861340166388 5.64829539550119 L 2.040040401980616 5.710484902709998 L 2.0317484676861084 5.773945471771862 L 1.629170482699911 5.721343513591078 L 1.5969096758353414 5.968244790097391 L 1.9558585195915077 6.015146043450701 L 1.9476961467703515 6.077615041120973 L 1.5887473030141852 6.030713787767663 L 1.555061319942747 6.288522349581484 L 1.9725128758028188 6.343067729862543 M 2.524223666391026 5.695616150515713 L 2.59743207250352 5.684821277914885 L 2.690209626207937 6.314017849368214 L 3.078016318047096 6.256834199915177 L 3.087352424080245 6.3201495781746315 L 2.6263373261285916 6.388128100228497 L 2.524223666391026 5.695616150515713 M 3.117739199219151 5.581077539780887 L 3.1887633638819946 5.560303324177276 L 3.385276214186414 6.23215353044742 L 3.3142520495235703 6.2529277460510295 L 3.117739199219151 5.581077539780887 M 4.073443906588473 5.164335277348999 L 4.395139003336109 5.786036382968516 L 4.3320807483375585 5.818665457067205 L 4.074724670939449 5.3213045725715915 L 4.046939794543406 5.866000818789295 L 4.01585473926243 5.882085573626677 L 3.556538868800629 5.592814193877628 L 3.8125162529269625 6.0875106450634435 L 3.7494579979284115 6.1201397191621325 L 3.427762901180775 5.498438613542616 L 3.481939711813333 5.470405183683179 L 3.990449556556699 5.791644561404961 L 4.0192670959559145 5.192368707208436 L 4.073443906588473 5.164335277348999 M 4.262005294880359 5.0049618561567994 L 4.319987319628758 4.958982678194639 L 4.754925489541081 5.507461290679501 L 4.696943464792682 5.553440468641661 L 4.262005294880359 5.0049618561567994 M 4.647075496261198 4.747614988613185 L 4.476811962592658 4.925171540457101 L 4.430618388129199 4.880875336575855 L 4.822362941203973 4.472350912414647 L 4.868556515667431 4.5166471162958945 L 4.69829298199889 4.694203668139811 L 5.157341628229505 5.134397194209698 L 5.106124142491813 5.187808514683072 L 4.647075496261198 4.747614988613185 M 5.704429853855526 4.291868871161836 L 5.758187273585091 4.326598394971116 L 5.48957611287269 4.742378438191972 L 4.90160433458057 4.362524271527972 L 5.16207576315017 3.9593436235562325 L 5.215833182879736 3.9940731473655124 L 4.995517766214616 4.335096778774942 L 5.204667727349956 4.470216332345422 L 5.401106596396196 4.166150927000069 L 5.454024056442487 4.2003378019998285 L 5.257585187396247 4.504403207345182 L 5.475974705047605 4.645491897820382 L 5.704429853855526 4.291868871161836 M 5.25787602558512 3.7758036868493545 L 5.35426704620014 3.5075989681272652 Q 5.391808812123884 3.4031402882039252 5.462434590142865 3.338199934961788 Q 5.533060368161847 3.27325958171965 5.623771431696275 3.255917351400197 Q 5.714482495230703 3.238575121080744 5.810471552457555 3.273072960037698 Q 5.906460609684409 3.307570798994653 5.965379547121251 3.378689072394064 Q 6.024298484558094 3.4498073457934755 6.037427864315484 3.5448487545960927 Q 6.050557244072875 3.63989016339871 6.01301547814913 3.74434884332205 L 5.916624457534111 4.012553562044139 L 5.25787602558512 3.7758036868493545 M 5.951434193655539 3.7264674172010923 Q 5.982549891538281 3.639889051859225 5.971537639570141 3.5626104629319535 Q 5.960525387602002 3.4853318740046824 5.912678561025847 3.427756434913075 Q 5.864831734449693 3.3701809958214675 5.785781922615814 3.341771010798093 Q 5.706732110781934 3.313361025774719 5.633181012041775 3.327306845009002 Q 5.559629913301616 3.3412526642432847 5.501944114509361 3.3938416233288144 Q 5.444258315717106 3.4464305824143437 5.413142617834363 3.5330089477562114 L 5.343132297598191 3.727810269775413 L 5.881423873419366 3.921268739220294 L 5.951434193655539 3.7264674172010923" fill="#4e888f" fill-rule="nonzero"></path></g><g transform="matrix(1,0,0,1,0,0)" clip-path="url(#SvgjsClipPath131618)"><g clip-path="url(#SvgjsClipPath131605537bc7b1-9f1f-4426-9c75-64fcda151267)"><path d=" M 0.09968711522520353 0.8921274442254827 L 0.8784024066220171 1.3414418331390572 L 1.5827135468000324 0.9347472978362598 L 1.5632095459951094 0.8993511482273074 C 1.478476195984248 0.7309708948248858 1.4619174982285907 0.5364061961958748 1.5169778403834262 0.3561286072900119 L 1.521312062784516 0.3416811992863625 C 1.5656285856832182 0.2072916205636105 1.647923876963652 0.08861578893054907 1.7582495540444014 0 C 1.609479961060864 0.04230928802455997 1.4665556851150243 0.10297324216116789 1.3327733883368649 0.18059260004564268 L 0.09968711522521613 0.8921274442254827 Z M 1.7394679236396497 0.8444509978134321 L 1.7250205156360003 0.8177232930066719 C 1.6598321522428772 0.6892619247073066 1.6478933291925943 0.5402861762104588 1.6917914772276117 0.40308268330186614 L 1.69829281082924 0.39008001609858417 L 1.69829281082924 0.38430105289712696 C 1.745687062381435 0.25189144122526863 1.8421497728499725 0.14275668568177272 1.967736970097343 0.0794607440200843 C 2.097633212962961 0.01364885513330048 2.2483740084639425 0.002213346509093224 2.386711802203251 0.04767644641206317 L 2.397547358205982 0.051288298412969224 C 2.5316036489009415 0.09816713698627988 2.64220210025572 0.19529692447584676 2.705999519083943 0.32217719848142695 C 2.7720068844642745 0.45230867515246875 2.783192424410335 0.6034435288423539 2.737061446291806 0.7418744009875062 C 2.7254494723748794 0.7775367804247272 2.7101994145778345 0.8119099265704471 2.6915521110803065 0.8444509978134321 L 2.2155100173599718 0.5699502457440557 L 1.7394679236396497 0.8444509978134321 Z M 2.848306487919911 0.9347472978362598 L 3.5526176280979267 1.3414418331390572 L 4.33133291949474 0.8921274442254827 L 3.098246646383091 0.18059260004564268 C 2.9647784859831434 0.10303428755029381 2.822070004773508 0.042601614384991035 2.6734928510757383 0.0007223704001837294 C 2.7543789076941763 0.06614133155127894 2.820587089194668 0.14785551838458771 2.867810488724847 0.24054934326080407 C 2.9550593640254506 0.4135606826943912 2.970126822105436 0.6141137454141622 2.90970797193544 0.7982192922017616 C 2.8939809278411635 0.845715409108239 2.8734052721534904 0.8914659846961167 2.848306487919911 0.9347472978362598 Z" fill="#44c2f4" transform="matrix(1,0,0,1,0,0)" fill-rule="evenodd"></path></g><g clip-path="url(#SvgjsClipPath131605537bc7b1-9f1f-4426-9c75-64fcda151267)"><path d=" M 4.4310200347199435 1.0654963402693007 L 3.6530271137233012 1.5148107291828625 L 3.6530271137233012 2.3281997997884574 C 3.730601352513691 2.32814370246996 3.80767820860337 2.340583321648996 3.881296160181007 2.3650406901977643 L 3.884185641781742 2.3650406901977643 C 4.066149754547967 2.4255395634288344 4.216942415931997 2.555309495773086 4.303882844287834 2.7262258902890624 C 4.339303423600625 2.7941743919034048 4.363687246787711 2.867325861464675 4.3761198843060685 2.942937010343816 C 4.413725322332041 2.7939218192449617 4.432652206345432 2.640808180623825 4.432464775520311 2.487121287828626 L 4.432464775520311 1.0633292290687495 Z M 3.6530271137233012 2.5102371406344672 C 3.7109302634650456 2.510527276512984 3.768438877538023 2.5197871381009995 3.823506528166397 2.537687215841386 L 3.823506528166397 2.537687215841386 C 3.9619983440769526 2.583139204948737 4.0766521630023105 2.6819338788526816 4.142071874646918 2.8121879679107753 C 4.207484377332627 2.9406163879532823 4.219178037792536 3.0897755235973796 4.174578542655135 3.2268285776155685 L 4.174578542655135 3.2311628000166706 C 4.129654645400246 3.369725439333518 4.031032772318893 3.4844807059004843 3.9008001609859297 3.5497281464971917 C 3.770668684314888 3.6157355118775105 3.619533830625003 3.6269210518235773 3.4811029584798505 3.5807900737050415 C 3.352493153402289 3.5392017506646907 3.244040824889537 3.451100334153154 3.176985020002979 3.3337393968425904 L 3.6530271137233012 3.0592386447732203 L 3.6530271137233012 2.5095147702342837 Z M 3.0173411615626393 3.424035696865424 L 2.313030021384624 3.8307302321682215 L 2.313030021384624 4.729359009995352 L 3.5453939240961145 4.018546536215696 C 3.679366430865918 3.94136192030112 3.8031344071583737 3.8476865500091866 3.9138028281892243 3.7397115617452226 C 3.7563269746623433 3.8011243701172064 3.582368781837963 3.805722384024461 3.4218685856648854 3.752714228948511 C 3.2510897692989458 3.6968223367310586 3.107008889059805 3.579756621536763 3.0173411615626393 3.424035696865424 Z" fill="#004883" transform="matrix(1,0,0,1,0,0)" fill-rule="evenodd"></path></g><g clip-path="url(#SvgjsClipPath131605537bc7b1-9f1f-4426-9c75-64fcda151267)"><path d=" M 2.1151005317345972 4.729359009995352 L 2.1151005317345972 3.8307302321682215 L 1.410789391556582 3.424035696865424 C 1.3401838657635285 3.548022035334751 1.2346748589992154 3.648506803681713 1.1073938234798941 3.712983856938463 C 0.9345675740003393 3.80078381973727 0.7338852462728958 3.8161209406387173 0.5497238745389239 3.7556037105492335 L 0.5143277249299841 3.742601043345945 C 0.6249961459608349 3.850576031609909 0.7487641222533034 3.944251401901842 0.8827366290230942 4.021436017816417 L 2.1151005317345972 4.732248491596073 Z M 1.2540350147169643 3.3330170264424193 C 1.2009990835197877 3.4261981846345626 1.1215747377008907 3.5016010445892154 1.0257659682592586 3.549728146497198 C 0.8956344915882293 3.6157355118775105 0.7444996378983443 3.6269210518235773 0.6060687657531918 3.5807900737050415 C 0.4677867007180926 3.5353677273179067 0.3532014551649846 3.4368919720693283 0.2875034192726583 3.3070116920358426 C 0.2214960538923395 3.1768802153647946 0.2103105139462791 3.0257453616749097 0.2564414920648083 2.887314489529757 C 0.30158037554580824 2.7488727097478463 0.40013907323664993 2.6341909533318475 0.5302198737340136 2.568749143049249 C 0.6070611829766633 2.5299515157954025 0.6919126113150825 2.509666334676592 0.7779929209966424 2.5095147702342713 L 0.7779929209966424 3.0592386447732203 L 1.2540350147169643 3.3337393968425904 Z M 0.7779929209966424 2.3274774293882734 L 0.7779929209966424 1.5148107291828625 L 0 1.0654963402693007 L 0 2.4892883990291645 C -0.0005455769672150777 2.6429969151269495 0.018386822045339365 2.79615516867723 0.05634489121421755 2.945104121544317 C 0.062322520998900614 2.9061290991279822 0.07150365081022333 2.8677133191279736 0.08379496642117408 2.830247227915343 C 0.14444298159955773 2.6461717422034607 0.2756380407503016 2.4936737229529884 0.4485920185133781 2.4062158030081613 C 0.5509238980071904 2.3551184891977814 0.6636152413566503 2.3281813040550396 0.7779929209966424 2.3274774293882734 Z" fill="#0691ca" transform="matrix(1,0,0,1,0,0)" fill-rule="evenodd"></path></g><g clip-path="url(#SvgjsClipPath131605537bc7b1-9f1f-4426-9c75-64fcda151267)"><path d=" M 2.0479200845176235 1.0929464154762447 C 2.185267287193681 1.1371085317608354 2.33447831103285 1.1254311472864715 2.463283064622588 1.0604397474680145 C 2.5933638651199518 0.9949979371854158 2.691922562810806 0.8803161807694169 2.737061446291806 0.7418744009875062 C 2.783192424410335 0.6034435288423539 2.7720068844642745 0.45230867515246875 2.7059995190839556 0.32217719848142695 C 2.6427945420831738 0.1942039047068088 2.5321176507269283 0.09596844376064914 2.397547358205969 0.048398816812234305 L 2.3867118022032385 0.048398816812234305 C 2.2483740084639425 0.002935716909251766 2.097633212962961 0.014371225533471615 1.9677369700973555 0.08018311442025543 C 1.8421497728499725 0.14347905608195646 1.745687062381435 0.2526138116254398 1.69829281082924 0.38502342329731065 L 1.69829281082924 0.3908023864987679 L 1.6917914772275993 0.40380505370204983 C 1.6478933291925943 0.5410085466106551 1.6598321522428772 0.6899842951074904 1.725020515636013 0.8184456634068557 C 1.7909085565989216 0.9481769539806295 1.905422523579025 1.046591451680083 2.043585862116521 1.0922240450760483 Z" fill="#44c2f4" transform="matrix(1,0,0,1,0,0)" fill-rule="evenodd"></path></g><g clip-path="url(#SvgjsClipPath131605537bc7b1-9f1f-4426-9c75-64fcda151267)"><path d=" M 3.4811029584798505 3.580067703304858 C 3.619533830625003 3.6261986814233933 3.770668684314888 3.6150131414773266 3.9008001609859297 3.5490057760970015 C 4.031032772318893 3.483758335500294 4.129654645400246 3.369003068933334 4.174578542655135 3.230440429616487 L 4.174578542655135 3.2261062072153845 C 4.219178037792536 3.089053153197196 4.207484377332627 2.9398940175530988 4.142071874646918 2.8114655975105913 C 4.0766521630023105 2.681211508452498 3.9619983440769526 2.5824168345485536 3.823506528166397 2.536964845441215 L 3.823506528166397 2.536964845441215 C 3.6853679749634853 2.4918623070879176 3.534990691263455 2.5032899417732395 3.405254066460685 2.568749143049236 C 3.275323857548431 2.63438343375698 3.176827503389823 2.7489926479626545 3.131475684791505 2.887314489529757 C 3.0853447066729505 3.0257453616749097 3.0965302466190234 3.1768802153647946 3.1625376119993422 3.3070116920358426 C 3.228130190550973 3.4368186333627864 3.3427913515076773 3.535099628468537 3.4811029584798505 3.580067703304845 Z" fill="#004883" transform="matrix(1,0,0,1,0,0)" fill-rule="evenodd"></path></g><g clip-path="url(#SvgjsClipPath131605537bc7b1-9f1f-4426-9c75-64fcda151267)"><path d=" M 0.6060687657531793 3.580067703304858 C 0.7444996378983443 3.6261986814233933 0.8956344915882293 3.6150131414773266 1.025765968259271 3.5490057760970015 C 1.1559156939542623 3.4830987287096074 1.2546275568561773 3.3682812460710645 1.3002667203286475 3.229718059216303 L 1.3002667203286475 3.229718059216303 C 1.3448258628615777 3.092417592827884 1.3331363738954227 2.943051900482629 1.26776005232043 2.8143550791113388 C 1.2025126117237228 2.6841224677783764 1.08775734515675 2.5855005946970233 0.9491947058399092 2.5405766974421335 L 0.9491947058399092 2.5405766974421335 C 0.8111048331786153 2.4950723110681317 0.6605700227574096 2.506511916696011 0.5309422441341847 2.572360995050155 C 0.4008614436368463 2.6378028053327536 0.302302745945992 2.7524845617487523 0.25716386246499207 2.8909263415306756 C 0.21103288434646283 3.0293572136758153 0.22221842429252323 3.1804920673657007 0.28822578967285467 3.310623544036755 C 0.35464853685383263 3.4387169010221603 0.4688295201250891 3.535511234568022 0.6060687657531793 3.580067703304845 Z" fill="#0691ca" transform="matrix(1,0,0,1,0,0)" fill-rule="evenodd"></path></g></g><g><path d=" M -2.4935667381258177 2.3646795049976745 A 4.70907675548579 4.70907675548579 0 0 1 6.924586772845762 2.3646795049976745 A 4.70907675548579 4.70907675548579 0 0 1 -2.4935667381258177 2.3646795049976745 Z M -2.443566738125818 2.3646795049976737 A 4.659076755485789 4.659076755485789 0 0 0 6.874586772845761 2.3646795049976737 A 4.659076755485789 4.659076755485789 0 0 0 -2.443566738125818 2.3646795049976737 Z" fill="#404040" fill-rule="nonzero"></path></g><g transform="matrix(-0.02425453264803271,-0.9997058155507677,0.9997058155507677,-0.02425453264803271,-3.939055020929494,1.0096526168064162)"><g clip-path="url(#SvgjsClipPath131619)"><path d=" M -1.4768005756383467 2.5196396062868764 C -1.4253155037073122 2.5196396062868764 -1.3826690929831744 2.477084433355842 -1.3826690929831744 2.425508123631704 C -1.3826690929831744 2.3740232590592902 -1.4253155037073122 2.331376952014463 -1.4768005756383467 2.331376952014463 C -1.528376989041795 2.331376952014463 -1.5709320582935191 2.3740232590592902 -1.5709320582935191 2.425508123631704 C -1.5709320582935191 2.477084433355842 -1.5282858549280018 2.5196396062868764 -1.4768005756383467 2.5196396062868764 Z M -1.4768005756383467 2.5011421805282557 L -1.4768005756383467 2.3499663413213594 C -1.4349742682590363 2.3499663413213594 -1.4012587933280019 2.383591615252394 -1.4011675555348986 2.425508123631704 C -1.4011675555348986 2.467425668804118 -1.434883030465933 2.5011421805282557 -1.4768005756383467 2.5011421805282557 Z" fill="#404040" transform="matrix(1,0,0,1,0,0)" fill-rule="nonzero"></path></g></g><g transform="matrix(0.02425453264803271,-0.9997058155507677,-0.9997058155507677,-0.02425453264803271,8.190964520000326,8.39210136208666)"><g clip-path="url(#SvgjsClipPath131620)"><path d=" M 5.90782061035829 2.519639606286876 C 5.959305682289325 2.519639606286876 6.001952093013463 2.4770844333558415 6.001952093013463 2.4255081236317038 C 6.001952093013463 2.37402325905929 5.959305682289325 2.3313769520144625 5.90782061035829 2.3313769520144625 C 5.856244196954842 2.3313769520144625 5.813689127703118 2.37402325905929 5.813689127703118 2.4255081236317038 C 5.813689127703118 2.4770844333558415 5.856335331068635 2.519639606286876 5.90782061035829 2.519639606286876 Z M 5.90782061035829 2.501142180528255 L 5.90782061035829 2.349966341321359 C 5.949646917737601 2.349966341321359 5.983362392668635 2.3835916152523935 5.983453630461739 2.4255081236317038 C 5.983453630461739 2.4674256688041174 5.949738155530705 2.501142180528255 5.90782061035829 2.501142180528255 Z" fill="#404040" transform="matrix(1,0,0,1,0,0)" fill-rule="nonzero"></path></g></g></g><defs><clipPath id="SvgjsClipPath131618"><path d=" M 0 0 h 4.4310200347199435 v 4.729359009995348 h -4.4310200347199435 Z"></path></clipPath><clipPath id="SvgjsClipPath131605537bc7b1-9f1f-4426-9c75-64fcda151267"><path d=" M 0 0 L 4.4310200347199435 0 L 4.4310200347199435 4.729359009995348 L 0 4.729359009995348 Z"></path></clipPath><clipPath id="SvgjsClipPath131619"><path d=" M -1.6219516101211053 2.2768143671144627 h 0.2903020689655172 v 0.30067 h -0.2903020689655172 Z"></path></clipPath><clipPath id="SvgjsClipPath131620"><path d=" M 5.762669575875532 2.2768143671144623 h 0.2903020689655172 v 0.30067 h -0.2903020689655172 Z"></path></clipPath></defs></svg>